<svg xmlns="http://www.w3.org/2000/svg" width="1687" height="1260"><path d="m209 9 3.215 1.063c12.172 4.511 22.458 12.51 28.87 23.859 4.13 9.169 1.819 20.46.376 30.039l-1 6.968-.537 3.67a3060.482 3060.482 0 0 0-2.764 19.561l-.28 2.019C226.664 169.868 220.957 244.606 220 319l-.026 2.027c-.12 9.992-.101 19.981.026 29.973l.026 2.077c.962 71.886 3.869 149.67 22.397 219.423.577 2.5.577 2.5.577 5.5h2l.297-1.816c.952-5.772 1.937-11.537 2.948-17.299a3430.73 3430.73 0 0 0 5.167-30.346 9543.518 9543.518 0 0 1 6.035-35.975c6.58-38.753 12.67-77.562 18.418-116.447 1.95-13.19 3.912-26.377 5.923-39.557l.758-5C290.908 289.442 301.493 240.826 329 207l2.148-2.645c8.21-9.605 18.24-16.893 30.852-19.355 15.885-1.052 30.066 2.748 42.313 13.25C417.358 210.816 423.615 227.525 427 245l.684 3.473c6.38 40.441-2.492 83.395-7.866 123.49-2.764 20.728-5.192 41.302-5.079 62.238.011 2.395 0 4.79-.012 7.184-.448 16.369-.448 16.369 4.273 31.615 19.952-14.824 31.688-43.678 42.012-65.496 5.623-11.816 11.415-23.544 17.267-35.247 1.658-3.319 3.31-6.64 4.961-9.962 6.132-12.295 12.462-24.45 19.112-36.473 2.605-4.714 5.105-9.48 7.586-14.26 94.55-180.555 94.55-180.555 165.75-204 33.67-9.205 65.525 1.428 94.979 17.932 11.467 6.668 21.932 14.547 32.258 22.844a748.707 748.707 0 0 0 7.748 6.098c6.523 5.09 12.94 10.303 19.327 15.564l5.375 4.375c4.641 3.795 9.22 7.657 13.789 11.539A659.649 659.649 0 0 0 859.5 194.5c5.679 4.626 11.266 9.355 16.847 14.097 1.623 1.378 3.249 2.752 4.876 4.126a2604.579 2604.579 0 0 1 18.68 15.933 474.162 474.162 0 0 0 10.784 8.969c4.686 3.8 9.125 7.821 13.563 11.906 2.687 2.413 5.44 4.702 8.25 6.969 4.757 3.838 9.258 7.896 13.754 12.035 2.665 2.392 5.394 4.658 8.183 6.902 4.536 3.659 8.82 7.51 13.082 11.477a190.304 190.304 0 0 0 9.981 8.586c4.52 3.636 8.781 7.47 13.024 11.418 3.19 2.951 6.46 5.742 9.851 8.457 5.038 4.051 9.728 8.397 14.43 12.825 4.314 4.04 8.793 7.79 13.406 11.484 4.421 3.672 8.588 7.611 12.789 11.53 2.962 2.763 5.99 5.439 9.055 8.087 2.282 1.993 4.517 4.034 6.757 6.074 3.377 3.054 6.82 5.97 10.376 8.813 5.333 4.307 10.287 8.95 15.264 13.658 3.578 3.368 7.203 6.587 11.048 9.654 5.983 4.776 11.488 10.023 17.055 15.27a289.186 289.186 0 0 0 9.558 8.593c2.324 2.016 4.604 4.075 6.887 6.137a683.28 683.28 0 0 0 9 8c5.59 4.871 11.075 9.859 16.578 14.828 3.787 3.415 7.578 6.822 11.422 10.172 5.59 4.871 11.075 9.859 16.578 14.828 3.765 3.395 7.534 6.783 11.36 10.11 4.196 3.654 8.299 7.41 12.41 11.16a404.938 404.938 0 0 0 6.59 5.84c3.949 3.43 7.792 6.972 11.64 10.515A386.656 386.656 0 0 0 1231 520.5c3.39 2.938 6.7 5.961 10 9a543.347 543.347 0 0 0 12.008 10.758A594.18 594.18 0 0 1 1260 546.5c3.62 3.267 7.27 6.495 10.95 9.695 2.31 2.035 4.585 4.107 6.862 6.18a230.532 230.532 0 0 0 10.438 8.875c5.764 4.66 11.139 9.688 16.543 14.754 3.657 3.427 7.4 6.738 11.207 9.996l3.102 2.664c2.396 2.058 4.797 4.112 7.199 6.164a838.552 838.552 0 0 1 7.117 6.156c8.224 7.172 16.74 13.868 25.465 20.418 2.04 1.54 4.065 3.099 6.086 4.664 26.983 20.792 57.457 37.938 91.031 44.934l3.262.684c16.385 2.865 33.658 2.498 49.738-1.684 23.855-5.993 23.855-5.993 32.21-1.266 4.846 3.428 7.224 7.566 8.79 13.266 2.156 21.658-7.734 39.671-21 56l-1.261 1.569c-19.731 24.439-44.327 45.834-76.739 49.431-18.97 1.032-36.616-2.857-54.755-8.07-16.942-4.855-33.8-9.266-51.245-11.93l-2.383-.364c-14.283-2.11-28.627-2.85-43.054-2.823l-2.117.003c-15.748.054-31.07 1.105-46.618 3.653-58.495 9.58-58.495 9.58-78.555-3.715-20.217-15.597-25.04-40.19-28.174-64.258-.791-6.575-1.484-13.16-2.161-19.746-3.384-42.753-3.384-42.753-26.126-77.438-43.6-33.575-102.208-51.483-153.222-70.408C832.8 495.751 832.8 495.751 785 451l-1.446-1.343c-19.06-17.837-35.533-43.541-36.667-70.333-.01-2.108.044-4.217.113-6.324 3.445-.919 6.654-1.054 10.195-1.031l2.727.013L762 372l.664 3.848C766.623 397.76 774.487 415.834 790 432a325.794 325.794 0 0 1 2.875 3.563c4.105 4.813 9.167 8.548 14.125 12.437l2.934 2.375c13.844 11.005 29.098 19.98 44.657 28.33 1.643.883 3.283 1.773 4.92 2.668 35.317 19.293 73.25 33.075 110.865 47.121 36.525 13.64 72.663 27.501 107.742 44.59 1.818.885 3.639 1.763 5.46 2.64 27.988 13.509 54.407 28.547 65.422 59.276 5.55 16.691 7.31 34.46 9.223 51.867l.32 2.905c.528 4.8 1.041 9.602 1.531 14.406 1.894 18.038 4.225 39.784 16.926 53.822 12.183 9.78 27.06 10.314 42 9 11.063-1.325 22.062-3.205 33.067-4.932 51.297-8.004 101.309-.826 150.933 12.932 26.262 7.27 50.505 11.116 75.438-2.938 8.45-5.085 15.535-11.182 22.562-18.062l2.617-2.465c14.4-13.839 28.418-31.962 30.5-52.344-.134-2.512-.852-4.04-2.117-6.191-6.331.65-12.332 1.951-18.5 3.5-40.52 10.174-80.426-.452-116.5-19.5l-1.956-1.026c-23.152-12.257-44.408-28.443-64.196-45.525-2.805-2.412-5.658-4.75-8.535-7.074-4.452-3.623-8.737-7.395-12.981-11.258A397.088 397.088 0 0 0 1303 606.5a522.745 522.745 0 0 1-8.813-7.875 230.532 230.532 0 0 0-10.437-8.875c-5.76-4.657-11.13-9.678-16.527-14.742a304.891 304.891 0 0 0-9.301-8.336c-2.333-2.03-4.627-4.1-6.922-6.172a595.524 595.524 0 0 0-8.875-7.875c-3.967-3.453-7.832-7.014-11.7-10.575a478.017 478.017 0 0 0-10.366-9.241c-3.513-3.087-6.952-6.255-10.407-9.407a404.938 404.938 0 0 0-6.59-5.84c-3.409-2.96-6.74-6.004-10.062-9.062a549.645 549.645 0 0 0-12.016-10.766c-4.91-4.29-9.723-8.692-14.562-13.062a1033.01 1033.01 0 0 0-13.36-11.86c-3.237-2.845-6.429-5.74-9.628-8.628a537.057 537.057 0 0 0-6.371-5.622c-4.195-3.651-8.294-7.405-12.403-11.152a558.071 558.071 0 0 0-8.633-7.633A651.599 651.599 0 0 1 1109 433.5c-5.323-4.8-10.689-9.54-16.152-14.18a627.05 627.05 0 0 1-20.97-18.652c-4.581-4.247-9.296-8.323-14.054-12.371-6.842-5.83-13.565-11.752-20.168-17.852-4.531-4.171-9.184-8.192-13.87-12.187a16215.693 16215.693 0 0 1-5.435-4.638 418.052 418.052 0 0 1-11.038-9.808 213.518 213.518 0 0 0-10.688-9.187c-4.796-3.867-9.295-7.975-13.789-12.183A184.793 184.793 0 0 0 972.5 313.5c-4.167-3.343-8.104-6.851-12-10.5-4.783-4.48-9.708-8.685-14.82-12.79-2.813-2.32-5.498-4.74-8.18-7.21a222.476 222.476 0 0 0-11-9.5 222.476 222.476 0 0 1-11-9.5c-4.47-4.114-9.09-7.97-13.816-11.785-2.631-2.171-5.163-4.417-7.684-6.715-4.197-3.822-8.537-7.415-12.95-10.984-3.57-2.945-7.062-5.973-10.55-9.016a557.465 557.465 0 0 0-15.703-13.2c-3.25-2.672-6.428-5.42-9.61-8.175-5.218-4.51-10.557-8.823-16.007-13.05-3.978-3.098-7.85-6.296-11.68-9.575-6.68-5.703-13.536-11.148-20.5-16.5l-2.311-1.784C783.819 154.85 772.886 146.866 761 140l-2.016-1.178c-22.945-13.262-50.406-22.137-76.922-15.197-54.396 18.878-89.19 113.191-112.87 160.73-1.514 3.04-3.036 6.077-4.56 9.113-8.049 16.047-15.751 32.225-23.25 48.537a1298.29 1298.29 0 0 1-5.624 12.007l-.923 1.95-1.794 3.79a2105 2105 0 0 0-15.559 33.588C479.866 476.564 479.866 476.564 458 502l-2.102 2.54C446.957 514.996 435.12 524.504 421 526c-10.09.378-18.383-2.584-26.32-8.824-19.925-18.674-23.648-50.866-24.605-76.62-1.65-56.426 3.433-113.676 11.492-169.48.998-7.088 2.108-15.852-1.192-22.451-2.19-2.789-2.19-2.789-5.313-3.875-3.314.27-4.69.908-6.85 3.435-5.522 8.275-7.665 17.702-9.587 27.315l-.438 2.14c-10.48 51.283-15.757 103.403-21.547 155.372C318.046 599.891 318.046 599.891 286 664l-1.664 3.332C275.59 683.478 262.538 694.462 245 700c-14.765 3.428-29.174.692-42-7-44.573-31.54-54.258-111.738-62.85-161.816-7.332-43.4-12.177-87.047-15.4-130.934l-.252-3.396c-2.2-30.018-2.705-59.957-2.686-90.041l.001-2.82c.013-34.594.64-69.111 2.09-103.679l.303-7.308c1.61-39.134 3.362-78.26 5.793-117.353l.37-5.979c.705-11.359 1.432-22.717 2.584-34.041l.2-2.137c.891-8.023 4.356-13.746 10.535-18.809C162.635 1.924 187.882 1.697 209 9Zm-54 18-2.188 1.5c-2.89 2.391-3.766 4.09-4.187 7.813.683 6.72 4.935 10.783 9.926 14.953 14.141 10.014 31.94 12.617 48.812 10.265 8.046-1.717 14.687-4.844 19.887-11.343 1.126-4.784.176-7.96-2.25-12.188-8.06-9.834-21.61-15.373-34-17-3.543-.241-7.075-.336-10.625-.375l-2.639-.042c-8.155.06-15.97 1.642-22.736 6.417Z" fill="#78B0E8"/><path d="M856 999h17l1 40 11-11c10.26-5.897 20.225-7.9 31.996-5.352 6.845 2.438 10.976 6.148 14.127 12.68 2.937 7.429 3.367 13.934 3.127 21.86L934 1069h28v-40h17v40c8.604-1.067 8.604-1.067 12-5 1.5-3 1.239-6.12 1.316-9.414l.063-2.211c.066-2.333.125-4.667.183-7l.131-4.742c.108-3.878.207-7.755.307-11.633h18v38l13 2c-.611-22.52-.611-22.52-2-45 3.422-1.14 6.087-1.098 9.688-1.063l3.574.028 2.738.035c2.924 15.421 3.332 30.328 3 46l21-1-1-6c-.887-10.815-1.204-22.082 5.59-31.113 7.14-7.29 16.835-7.978 26.548-8.134 20.313-.027 20.313-.027 24.862 2.247v44h26v-70h17v85c-38.207.08-38.207.08-54.191.098-11.046.012-22.093.026-33.139.053-8.044.02-16.088.033-24.132.037-4.26.003-8.52.009-12.78.023-4.009.014-8.017.018-12.026.015-1.472 0-2.945.005-4.417.012-2.008.01-4.017.007-6.026.003l-3.407.005c-2.87-.245-4.398-.892-6.882-2.246-2.655.316-4.612.806-7 2-2.633.096-5.239.13-7.871.12l-2.493.003c-2.771.001-5.543-.004-8.314-.01l-5.942.001c-5.39 0-10.78-.006-16.17-.013-5.629-.006-11.257-.006-16.885-.008-10.664-.003-21.327-.011-31.99-.021-12.139-.011-24.276-.017-36.414-.022-24.974-.01-49.947-.028-74.921-.05l.025 2.291.019 3.005.024 2.978c-.19 7.566-3.645 14.568-9.068 19.726-4.336 2.318-8.52 2.235-13.313 2.125L766 1114v-16l4.313-.188c2.434-.001 2.434-.001 4.687-.812 3.02-3.953 3.388-6.997 3.432-11.902l.031-2.041c.03-2.213.04-4.426.049-6.639l.054-4.62c.048-4.042.077-8.084.104-12.127.03-4.13.076-8.259.121-12.388.086-8.094.152-16.188.209-24.283h17v46h60v-70Zm33 44-1.77 1.398c-4.13 3.674-6.862 7.986-9.605 12.727l-1.049 1.812c-1.94 3.5-2.772 6.043-3.576 10.063h44c1.416-17.658 1.416-17.658-4-27-3.45-3.285-6.223-4.284-10.875-4.563-5.498.248-8.925 2.13-13.125 5.563Zm192-1c-3.596 5.217-3.366 12.908-2.648 18.973.576 4.36.576 4.36 2.648 8.027 1.489.087 2.981.107 4.473.098l2.453-.008 3.137-.027L1101 1069v-30c-13.828-1.286-13.828-1.286-20 3Z" fill="#0C2A64"/><path d="M400.313 667.688A85.259 85.259 0 0 1 404 671l2.086 1.965c11.705 12.031 14.417 29.435 14.27 45.663-.381 12.154-2.515 25.11-9.356 35.372l2.371.367 3.067.508 3.058.492L422 756c1.425 2.85.717 4.759.188 7.875l-.52 3.18c-.603 2.656-1.41 4.562-2.668 6.945l-2.52-.399c-3.123-.486-6.248-.958-9.376-1.42-1.346-.202-2.69-.41-4.035-.623-7.038-1.115-13.223-2.093-20.14-.091-11.025 3.046-24.338.3-34.179-5.092-11.521-7.508-17.097-18.35-20.172-31.418-3.452-17.659-3.167-39.722 6.953-55.316 14.452-19.576 43.79-26.502 64.781-11.953Zm-43.774 19.933c-8.161 12.615-8.415 30.586-5.412 44.949 1.854 7.65 4.125 14.312 10.943 18.79 6.08 3.092 11.694 3.7 18.285 2.05 6.5-2.362 9.61-6.33 12.645-12.41 6.44-15.128 5.66-34.234.086-49.504-2.658-5.866-6.156-8.814-11.961-11.246-9.87-3.364-18.187-.562-24.586 7.371Z" fill="#0F2D66"/><path d="M1471 999h17v70h59v-46h18v46h33l-3-9c-1.123-11.554-.148-20.856 7.188-30.172 6.344-6.399 13.746-8.038 22.437-8.078 7.31-.026 13.762.944 20.375 4.25v16l-2 1c-2.066-.742-2.066-.742-4.563-1.875-6.096-2.521-11.91-4.38-18.312-1.938-4.17 2.419-5.62 4.296-7.125 8.813-1.067 8.31 1.013 12.026 5 20l31 1v15h-178v-85Z" fill="#0E2C65"/><path d="M895.238 669.434c6.728 5.981 10.246 13.106 10.965 22.109.187 10.548-2.046 18.583-9.203 26.457a173.384 173.384 0 0 1-4.207 3.738l-2.16 1.865L889 725c2.288 4.148 4.58 8.294 6.875 12.438l1.027 1.855c4.649 8.385 9.368 16.721 14.303 24.943C914 768.906 914 768.906 914 770c-4.2 1.01-8.186 1.166-12.5 1.188l-3.906.042c-3.54-.226-5.493-.588-8.594-2.23-1.758-2.347-1.758-2.347-3.34-5.277l-1.783-3.248-1.814-3.413-1.803-3.306-1.787-3.283-1.789-3.258C875 744 875 744 873.61 740.765l-1.363-3.019-1.108-2.701c-2.977-3.273-2.977-3.273-13.138-3.045v38c-4.06 1.015-7.39 1.133-11.563 1.125l-2.037.012c-3.075-.006-5.46-.157-8.4-1.137-.023-13.934-.04-27.868-.052-41.801-.005-6.47-.012-12.939-.023-19.408-.011-6.238-.017-12.475-.02-18.713-.002-2.385-.005-4.77-.01-7.156-.008-3.329-.009-6.658-.009-9.986l-.01-3.021.004-2.733-.003-2.388C836 663 836 663 837 662c18.13-2.979 42.861-4.253 58.238 7.434ZM858 679v35c15.084 1.754 15.084 1.754 20.938-4.313 4.367-5.96 4.779-11.466 4.062-18.687-1.715-5.362-5.147-8.316-10-11-4.37-1.632-4.37-1.632-15-1Z" fill="#112F68"/><path d="M478 662c2.215-.356 2.215-.356 4.938-.328l2.96.015 3.102.063 3.102.016c7.59.08 7.59.08 9.898 1.234a106.976 106.976 0 0 1 2.395 7.029l.7 2.233c.77 2.46 1.53 4.923 2.288 7.386l1.615 5.183c1.136 3.646 2.267 7.293 3.395 10.941 1.419 4.593 2.845 9.183 4.276 13.773C522.934 729.65 529.105 749.78 535 770c-3.85 1.283-7.49 1.145-11.5 1.125l-2.34.012c-3.305-.006-6.004-.085-9.16-1.137-.891-1.918-.891-1.918-1.605-4.402l-.791-2.698-.791-2.837-.827-2.827C506 750.351 506 750.351 506 748l-35 1c-1.853 6.862-1.853 6.862-3.679 13.732l-.716 2.577c-.235.874-.47 1.749-.714 2.65L465 770c-3.722 1.24-7.188 1.146-11.063 1.125l-2.22.012c-5.464-.01-5.464-.01-7.717-1.137 1.374-8.117 3.693-15.808 6.219-23.633l1.256-3.937a4963.63 4963.63 0 0 1 3.338-10.416c1.148-3.574 2.29-7.15 3.433-10.726l.683-2.139 1.358-4.25a16194.6 16194.6 0 0 1 2.016-6.303c2.423-7.577 4.825-15.16 7.174-22.76l.723-2.34c1.035-3.348 2.063-6.698 3.083-10.051l1.037-3.367.852-2.8C476 665 476 665 478 662Zm10 23a8161.235 8161.235 0 0 0-5.127 17.725c-.58 2.01-1.162 4.02-1.746 6.029-.839 2.888-1.671 5.778-2.502 8.668l-.795 2.721-.728 2.547-.646 2.234c-.599 2.373-.599 2.373-.456 6.076h25c-1.281-6.406-2.61-12.595-4.383-18.852l-.664-2.378c-.69-2.466-1.383-4.93-2.078-7.395l-1.418-5.066A7445.75 7445.75 0 0 0 489 685h-1ZM962.215 661.757l2.722.013 2.961.005 3.102.037 3.102.002c7.617.046 7.617.046 9.898 1.186.83 2.02.83 2.02 1.657 4.724l.956 3.083 1.028 3.396 1.088 3.532c.978 3.177 1.95 6.355 2.917 9.535 1.005 3.295 2.017 6.587 3.03 9.879 1.233 4.014 2.466 8.028 3.695 12.043 2.611 8.522 5.256 17.033 7.934 25.535l1.964 6.249c.922 2.933 1.846 5.866 2.775 8.798a2697.33 2697.33 0 0 1 2.526 8.03l.755 2.363c1.082 3.473 1.675 6.158 1.675 9.833-3.404 1.702-7.187 1.185-10.938 1.187l-2.498.038-2.404.005-2.199.013C996 771 996 771 993 769c-.8-1.94-.8-1.94-1.387-4.281l-.654-2.551-.646-2.668-.682-2.668C988 750.358 988 750.358 988 748h-36l-1 7a195.326 195.326 0 0 1-1.875 7.312l-.992 3.676C947 769 947 769 944 771c-2.728.169-5.34.233-8.063.187l-2.22-.001c-5.436-.045-5.436-.045-7.717-1.186.591-4.902 1.603-9.38 3.098-14.083l.641-2.034c.698-2.209 1.403-4.415 2.109-6.621l1.485-4.693a6726.12 6726.12 0 0 1 3.931-12.374c2.074-6.513 4.136-13.029 6.2-19.544l2.267-7.133c2.284-7.189 4.547-14.382 6.73-21.601l1.118-3.691c.675-2.24 1.345-4.48 2.008-6.724l.887-2.944.754-2.542c1.076-2.809 1.94-3.925 4.987-4.259ZM970 685l-13 46h26c-3.473-15.483-7.717-30.726-12-46h-1ZM760.215 661.757l2.722.013 2.961.005 3.102.037 3.102.002c7.617.046 7.617.046 9.898 1.186.816 2.118 1.528 4.277 2.196 6.446l.636 2.047c.7 2.255 1.39 4.514 2.078 6.773a5005.985 5005.985 0 0 1 5.365 17.416c1.28 4.173 2.568 8.343 3.856 12.513a8891.68 8891.68 0 0 1 4.526 14.696 3019.87 3019.87 0 0 0 7.096 22.861l1.281 4.072c.785 2.497 1.577 4.992 2.373 7.485.345 1.095.69 2.19 1.044 3.319l.912 2.87C814 766 814 766 814 770c-3.407 1.703-7.183 1.227-10.938 1.25l-2.498.062-2.404.016-2.199.028c-2.574-.467-3.386-1.29-4.961-3.356-.8-1.961-.8-1.961-1.387-4.16l-.654-2.404-.646-2.499-.682-2.51C786 750.337 786 750.337 786 748h-36l-1 7a195.326 195.326 0 0 1-1.875 7.312l-.992 3.676C745 769 745 769 742 771c-2.728.169-5.34.233-8.063.187l-2.22-.001c-5.436-.045-5.436-.045-7.717-1.186.596-4.995 1.657-9.615 3.206-14.406l.675-2.138c.735-2.32 1.478-4.638 2.22-6.956l1.56-4.917c1.37-4.32 2.747-8.637 4.125-12.954 2.181-6.836 4.352-13.675 6.524-20.513.787-2.476 1.575-4.95 2.364-7.425 3.206-10.076 6.349-20.167 9.291-30.323l.743-2.513.619-2.136c1.047-2.675 2.018-3.647 4.888-3.962ZM768 685l-13 46h26c-3.473-15.483-7.717-30.726-12-46h-1Z" fill="#0F2D66"/><path d="M908 1161h18l9 61h1l.487-2.271c1.512-7.05 3.027-14.098 4.546-21.146a8859.4 8859.4 0 0 0 2.337-10.873c.75-3.495 1.502-6.99 2.257-10.484.288-1.336.574-2.672.86-4.009.398-1.866.802-3.73 1.206-5.596l.693-3.223C949 1162 949 1162 950 1161a62.92 62.92 0 0 1 4.254-.098l2.588.01 2.72.025 2.733.014c2.235.012 4.47.028 6.705.049 3.446 13.257 6.368 26.611 9.25 40l1.39 6.43c1.123 5.19 2.243 10.38 3.36 15.57a4407.647 4407.647 0 0 0 10-62h18a2698.84 2698.84 0 0 1-8.52 47.214c-.68 3.602-1.356 7.204-2.033 10.806l-1.302 6.902-.61 3.247-.567 2.99-.495 2.623C997 1237 997 1237 996 1240h-25a32190.08 32190.08 0 0 1-3.734-17.018c-2.093-9.546-4.168-19.095-6.11-28.673-.752-3.76-.752-3.76-2.156-7.309l-11 53h-25c-3.376-13.504-3.376-13.504-4.442-19.082l-.727-3.78-.749-3.95-.794-4.158c-.55-2.877-1.096-5.754-1.641-8.632-.698-3.684-1.402-7.366-2.109-11.049-.545-2.849-1.087-5.7-1.629-8.55-.258-1.358-.518-2.717-.778-4.076-.363-1.891-.72-3.784-1.077-5.676l-.619-3.255C908 1165 908 1165 908 1161Z" fill="#14316A"/><path d="M146 999h17v85h-42v7c-1.313 7.637-4.477 14.623-10.805 19.348-4.759 2.85-8.772 3.768-14.232 3.829l-3.037.039-3.27.022-3.394.025c-2.374.014-4.748.024-7.121.032a962.45 962.45 0 0 0-7.239.062c-3.499.043-6.997.059-10.496.069l-3.22.053c-10.006-.029-19.653-2.289-27.502-8.784C25.872 1100.85 22.59 1094.87 22 1088c.263-23.263.263-23.263 4-27 2.128.064 4.253.202 6.375.375l3.523.273C39 1062 39 1062 42 1063l-.219 1.66c-.627 5.355-.95 10.701-1.093 16.09l-.114 3.734c.535 4.413 1.386 6.252 4.426 9.516 7.89 5.469 17.924 4.576 27.087 4.467 2.671-.03 5.34-.021 8.01-.008 1.713-.006 3.425-.015 5.137-.025l2.397.008c4.839-.082 8.157-.812 12.369-3.442 2.436-3.248 2.544-7.045 3-11l-3.938.25c-5.271.017-9.577-1.507-14.062-4.25l-1-2a97.945 97.945 0 0 1 3.438-6.625l1.025-1.852A674.308 674.308 0 0 1 91 1065l3.309 1.468c5.234 1.953 10.216 2.008 15.754 2.044l2.775.05c3.387.058 6.775.09 10.162.126l23 .312v-70Z" fill="#0D2B65"/><path d="M401 999h17v85H289v-15h38c-.403-15.284-.403-15.284-7.875-28.063-5.478-3.396-10.642-4.266-17-4.562l-2.086-.117c-1.68-.093-3.36-.177-5.039-.258-.872-4.793-1.084-9.147-1-14 12.828-2.22 23.31-3.6 35.188 2.688 8.66 7.12 12.121 14.55 14.812 25.312v19h57v-70Z" fill="#0A2963"/><path d="m593.938 660.625 2.464-.002c20.586.365 20.586.365 25.598 5.377-.054 6.136-1.653 11.388-4 17l-3.113-.875c-10.976-2.984-21.238-5.546-31.887-.125-2.517 2.831-2.299 6.198-2.46 9.902.687 3.132 2.303 4.753 4.46 7.098 2.718 1.56 2.718 1.56 5.797 2.684l3.406 1.373 3.547 1.38c11.42 4.467 21.06 8.632 27 19.875 3.135 9.146 2.276 20.602-1.5 29.36-4.459 8.304-11.325 13.207-20.152 16.367-15.313 4.132-33.478 3.27-48.098-3.039.41-6.762 1.57-12.672 4-19l2.719.875c10.644 3.167 22.107 5.385 33.031 2 3.87-2.232 5.406-3.803 7.25-7.875.647-3.795.354-7.049-1-10.688-4.92-5.689-11.948-8.246-18.875-10.687-8.322-3.103-16.868-6.382-21.688-14.313-3.725-8.585-4.071-20.008-.875-28.875C563.18 670.889 569.17 665.824 577 663c5.75-1.683 10.957-2.386 16.938-2.375Z" fill="#112E67"/><path d="M1404 1161h28l17 58 1-58h17v79h-27l-18-59-1 59h-17v-79Z" fill="#15326A"/><path d="M687.875 1161.25c3.224 2.603 4.894 4.695 6.125 8.75.795 7.613.986 14.837-4 21-3.191 3.181-6.524 6.134-10 9 1.31 1.336 2.623 2.669 3.938 4l2.214 2.25c1.545 1.865 1.545 1.865 2.848 1.75l2-13 16 1c-1.875 12.991-1.875 12.991-3.188 17-.91 3.361-.9 4.721.188 8 2.272 2.54 2.272 2.54 5.063 4.813l2.785 2.394L714 1230c-2.36 4.062-4.946 7.45-8 11-3.66-.585-5.545-2.083-8.25-4.563l-2.14-1.94L694 1233c-3.589 1.305-6.73 2.963-9.96 5-9.488 4.653-22.365 4.643-32.29 1.313-4.132-1.795-7.005-3.653-9.75-7.313l-1.18-1.57c-4.082-6.504-3.606-14.031-2.82-21.43 1.606-6.166 5.663-10.618 11-14 2.219-.66 2.219-.66 4-1l-1.059-1.645-1.379-2.168-1.37-2.144c-3.236-5.548-2.598-11.825-2.192-18.043 1.452-4.784 3.889-7.289 7.984-9.965 9.62-4.94 23.785-4.734 32.891 1.215ZM664 1174c-1.393 4.342-1.394 6.226.688 10.313 2.093 2.432 3.34 3.625 6.312 4.687 4.358-3.926 4.358-3.926 7-9 .082-3.09.082-3.09-1-6-4.774-3.769-8.255-3.87-13 0Zm-6.625 32.563c-2.613 3.347-3.297 6.15-3.375 10.437 1.053 4.526 3.193 6.451 7 9 7.105 1.142 13.715.508 20-3-3.845-4.699-7.94-9.104-12.188-13.438l-1.584-1.649c-1.352-1.364-2.786-2.645-4.228-3.913-3.254-.35-3.254-.35-5.625 2.563Z" fill="#133069"/><path d="m249.063 1020.75 3.376.014c20.551.226 20.551.226 23.561 3.236.104 1.808.139 3.62.145 5.43l.02 3.523.003 3.848.01 3.945c.006 2.768.008 5.537.007 8.305 0 3.515.014 7.03.031 10.546.014 3.38.013 6.76.014 10.141l.022 3.78c-.033 13.051-1.086 25.051-9.69 35.42-6.01 4.838-10.852 5.525-18.312 5.374l-2.687-.025c-6.066-.111-11.682-.719-17.563-2.287v-15l4.855.324 6.333.363 3.197.221 3.095.166 2.841.175c3.279-.305 5.062-1.281 7.679-3.249 1.028-2.703 1.028-2.703 1.313-5.688l.425-3.011L258 1084l-1.893.063c-2.869.084-5.737.136-8.607.187l-2.977.102c-7.525.1-12.551-1.285-18.511-5.887-7.521-8.674-7.712-19.472-7.012-30.465.83-8.592 2.214-16.859 8.875-22.875 6.795-4.62 13.227-4.441 21.188-4.375ZM240 1039c-3.799 4.749-4.14 11.07-4 17 .79 4.356 1.837 7.837 5 11 6.452 3.226 9.13 2 18 2v-32c-10.169-1.302-10.169-1.302-19 2Z" fill="#102E67"/><path d="M543.438 1020.813h3.261c20.259.145 20.259.145 23.301 3.187.11 1.93.15 3.865.161 5.798l.03 3.765.012 4.113.017 4.214c.01 2.957.017 5.913.02 8.87.006 3.758.03 7.515.058 11.273.019 2.909.024 5.818.026 8.728.003 1.383.01 2.765.024 4.148.11 12.476-.803 24.35-9.348 34.091-5.803 5.046-11.31 5.182-18.625 5.188l-2.621.037c-5.881.013-11.056-.763-16.754-2.225v-15l4.637.254 6.05.309 3.053.17 2.96.146 2.713.143c3.014.055 3.014.055 7.587-1.022l3-13-4.75.14c-2.083.038-4.167.075-6.25.11l-3.121.102c-6.525.083-11.47-.522-16.879-4.352-5.775-5.646-8.1-11.756-8.398-19.68-.008-2.065 0-4.13.023-6.195l-.035-3.105c.036-9.438 1.494-19.046 8.41-26.02 7.027-4.302 13.414-4.193 21.438-4.188ZM536 1038c-4.767 4.767-5.159 8.834-5.25 15.375.042 6.797.042 6.797 3.25 12.625 6.52 4.162 10.525 3 19 3v-32c-9.087-1.266-9.087-1.266-17 1Z" fill="#0E2C66"/><path d="M59.688 1159.75c1.29-.03 1.29-.03 2.607-.063 8.497-.05 15.911 1.628 22.209 7.606 9.293 10.604 9.322 27.09 8.664 40.44-.74 9.96-2.95 19.048-10.168 26.267.382 4.97 2.916 7.955 5.82 11.816C90 1248 90 1248 90.121 1250.074c-1.818 3.124-4.951 3.938-8.183 5.176l-2.01.813c-1.637.66-3.282 1.3-4.928 1.937l-1.555-3.43c-3.81-8.098-3.81-8.098-10.556-13.46-3.86-.808-7.593-.871-11.522-.844-5.798-.055-10.202-2.442-14.574-6.125-9.91-11.671-10.478-26.877-9.52-41.617.93-10.707 3.262-20.334 11.727-27.524 6.736-4.82 12.686-5.203 20.688-5.25Zm-11 19.5c-4.207 6.856-4.025 13.86-4 21.688l-.05 3.17c-.004 7.325.549 13.464 5.362 19.33 4.613 3.604 10.426 3.12 16 2.562 4.186-1.869 5.586-3.258 7.813-7.25 3.738-11.807 3.947-27.385-1.438-38.75-2.976-3.76-5.733-5.048-10.375-6-5.484 0-9.347 1.392-13.313 5.25Z" fill="#123068"/><path d="M644 663h76v17l-1 1h-26v89c-4.06 1.015-7.39 1.133-11.563 1.125l-2.037.012c-3.075-.006-5.46-.157-8.4-1.137v-89h-27c-1-11-1-11 0-18Z" fill="#102E67"/><path d="M394 1161c45.608 0 45.608 0 53.5 7.188 5.503 7.507 6.375 15.714 5.5 24.812-1.202 6.46-3.991 11.661-9 16h-2l1.01 2.63a6657.73 6657.73 0 0 1 3.69 9.65c.532 1.394 1.066 2.787 1.6 4.179.768 2 1.531 4 2.294 6.002l1.396 3.65C453 1238 453 1238 453 1240h-19c-1.339-3.769-2.671-7.54-4-11.313l-1.156-3.248-1.094-3.115-1.016-2.872C426 1217 426 1217 426 1214h-15v26h-17v-79Zm17 14v24l8.688.25 2.71.11c4.034.056 6.096-.042 9.598-2.239 2.824-2.989 3.942-5.112 4.07-9.266-.231-4.232-.723-6.398-3.316-9.855-6.24-4.538-14.38-3.069-21.75-3Z" fill="#15326A"/><path d="m1025.884 662.876 2.114.01h2.217c2.43 0 4.86.009 7.289.016l5.04.005c4.43.003 8.861.013 13.292.024 4.517.01 9.035.015 13.553.02 8.87.01 17.74.028 26.611.049.765 2.9 1.135 5.431 1.125 8.438l.008 2.246C1097 676 1097 676 1096 681h-27v89c-3.722 1.24-7.188 1.146-11.062 1.125l-2.221.012c-5.464-.01-5.464-.01-7.717-1.137v-89h-27c-1.525-3.05-1.144-6.221-1.125-9.562l-.012-2.116c.012-5.916.083-6.434 6.021-6.446Z" fill="#0A2963"/><path d="M762 1161c44.525 0 44.525 0 53.125 7.688 9.075 12.085 8.223 30.645 6.344 44.964-1.322 8.22-3.116 14.071-9.219 20.035-14.373 10.227-33.84 6.313-50.25 6.313v-79Zm16 15v49c13.882 1.118 13.882 1.118 21-3 6.22-6.241 6.057-15.221 6.25-23.625-.229-10.419-.229-10.419-4.688-19.5-7.235-5.294-11.812-2.875-22.562-2.875Z" fill="#0F2D66"/><path d="M851 1161h32c2.22 9.857 4.437 19.714 6.65 29.572 1.027 4.577 2.056 9.155 3.087 13.731.995 4.415 1.986 8.83 2.976 13.247.378 1.686.758 3.372 1.139 5.058.532 2.358 1.06 4.716 1.587 7.075l.482 2.12c.624 2.806 1.079 5.311 1.079 8.197h-17l-3-14-26 1-3 13h-17c.667-5.339 1.403-10.227 2.582-15.426l.474-2.102a2866.7 2866.7 0 0 1 1.542-6.784l1.072-4.742c.935-4.137 1.875-8.273 2.816-12.408 1.13-4.975 2.255-9.95 3.381-14.926 1.707-7.538 3.42-15.075 5.133-22.612Zm14 14c-1.464 4.179-2.584 8.312-3.508 12.64l-.8 3.743-.817 3.867-.84 3.914c-1.432 5.867-1.432 5.867-2.035 11.836h20c-.766-3.939-1.538-7.876-2.313-11.813l-.646-3.333A247.54 247.54 0 0 0 869 1175h-4ZM329 1161h32c2.22 9.857 4.437 19.714 6.65 29.572 1.027 4.577 2.056 9.155 3.087 13.731.995 4.415 1.986 8.83 2.976 13.247.378 1.686.758 3.372 1.139 5.058.532 2.358 1.06 4.716 1.587 7.075l.482 2.12c.624 2.806 1.079 5.311 1.079 8.197h-17l-3-14-26 1-3 13h-17c.667-5.339 1.403-10.227 2.582-15.426l.474-2.102a2866.7 2866.7 0 0 1 1.542-6.784l1.072-4.742c.935-4.137 1.875-8.273 2.816-12.408 1.13-4.975 2.255-9.95 3.381-14.926 1.707-7.538 3.42-15.075 5.133-22.612Zm14 14c-1.464 4.179-2.584 8.312-3.508 12.64l-.8 3.743-.817 3.867-.84 3.914c-1.432 5.867-1.432 5.867-2.035 11.836h20c-.766-3.939-1.538-7.876-2.313-11.813l-.646-3.333A247.54 247.54 0 0 0 347 1175h-4ZM482 1161h31c1.48 4.443 2.672 8.623 3.696 13.167l.474 2.091a3367.7 3367.7 0 0 1 1.525 6.789l1.068 4.735c.743 3.298 1.484 6.597 2.224 9.895.949 4.234 1.903 8.466 2.858 12.698.734 3.254 1.467 6.509 2.198 9.764l1.055 4.684a533872258.756 533872258.756 0 0 0 2.308 10.281C531 1238 531 1238 531 1240h-17c-3-10.625-3-10.625-3-14h-27l-1 10-1 4h-17c.675-8.233 2.488-16.146 4.344-24.176l.997-4.372c.87-3.811 1.746-7.622 2.623-11.432.892-3.881 1.778-7.764 2.665-11.647a13553.48 13553.48 0 0 1 3.896-17.003l.792-3.444c.54-2.314 1.107-4.621 1.683-6.926Zm13 14c-1 4.644-1.998 9.289-2.99 13.934l-1.02 4.74c-.489 2.271-.974 4.543-1.459 6.814l-.464 2.14c-.606 2.856-1.067 5.443-1.067 8.372h20c-.976-4.806-1.954-9.612-2.936-14.417l-.998-4.906c-.476-2.348-.956-4.696-1.437-7.044l-.448-2.223c-.76-3.812-.76-3.812-2.181-7.41h-5ZM122 1161h31c1.48 4.443 2.672 8.623 3.696 13.167l.474 2.091a3367.7 3367.7 0 0 1 1.525 6.789l1.068 4.735c.743 3.298 1.484 6.597 2.224 9.895.949 4.234 1.903 8.466 2.858 12.698.734 3.254 1.467 6.509 2.198 9.764l1.055 4.684a533873823.556 533873823.556 0 0 0 2.308 10.281C171 1238 171 1238 171 1240h-17c-3-10.625-3-10.625-3-14h-27l-1 9-1 5h-17c.684-8.31 2.502-16.316 4.344-24.43l.997-4.446c.693-3.089 1.39-6.176 2.088-9.264.896-3.956 1.786-7.914 2.673-11.873a14437.548 14437.548 0 0 1 4.423-19.639l.792-3.504C121 1164 121 1164 122 1161Zm13 14c-1 4.644-1.998 9.289-2.99 13.934l-1.02 4.74c-.489 2.271-.974 4.543-1.459 6.814l-.464 2.14c-.606 2.856-1.067 5.443-1.067 8.372h20c-.976-4.806-1.954-9.612-2.936-14.417l-.998-4.906c-.476-2.348-.956-4.696-1.437-7.044l-.448-2.223c-.76-3.812-.76-3.812-2.181-7.41h-5ZM1036 1161h31c1.48 4.443 2.672 8.623 3.696 13.167l.474 2.091a3367.7 3367.7 0 0 1 1.525 6.789l1.068 4.735c.743 3.298 1.484 6.597 2.224 9.895.949 4.234 1.903 8.466 2.858 12.698.734 3.254 1.467 6.509 2.198 9.764l1.055 4.684c.49 2.175.978 4.351 1.465 6.528l.843 3.753C1085 1238 1085 1238 1085 1240h-17c-3-10.625-3-10.625-3-14h-27l-1 9-1 5h-17c.684-8.31 2.502-16.316 4.344-24.43l.997-4.446c.693-3.089 1.39-6.176 2.088-9.264.896-3.956 1.786-7.914 2.673-11.873.85-3.785 1.702-7.57 2.554-11.354l.49-2.183 1.38-6.102.791-3.504C1035 1164 1035 1164 1036 1161Zm13 14c-1 4.644-1.998 9.289-2.99 13.934l-1.02 4.74c-.489 2.271-.974 4.543-1.459 6.814l-.464 2.14c-.606 2.856-1.067 5.443-1.067 8.372h20c-.976-4.806-1.954-9.612-2.936-14.417l-.998-4.906c-.476-2.348-.956-4.696-1.437-7.044l-.448-2.223c-.76-3.812-.76-3.812-2.181-7.41h-5ZM210.875 1159.625l2.903.041c18.296.408 18.296.408 21.222 3.334.153 4.59-.064 8.504-1 13l-2.276-.14c-3.428-.2-6.857-.374-10.286-.547l-3.58-.221c-6.474-.308-11.19-.386-16.858 2.908-1.315 1.106-1.315 1.106-1.313 3.875-.034 3.163-.034 3.163 2.054 4.72 2.237 1.391 4.202 2.229 6.708 3.018l2.56.835 2.679.864c15.945 5.374 15.945 5.374 21.312 12.25 3.202 7.806 2.956 16.562-.031 24.403-3.05 6.405-7.57 9.555-13.969 12.035-11.697 3.908-26.326.455-38-2l1-13c3.332-1.11 5.502-.698 8.922-.262 4.133.352 8.244.38 12.39.387l2.391.013 2.285-.005 2.048-.004c2.088-.137 3.954-.564 5.964-1.129.25-1.601.474-3.206.688-4.813l.386-2.707c.173-2.486.173-2.486-1.304-4.032-2.015-1.648-3.681-2.308-6.157-3.096l-2.595-.86c-1.784-.572-3.568-1.142-5.352-1.71-7.743-2.568-15.144-5.652-19.666-12.782-2.95-6.341-3.038-13.65-.813-20.25 2.583-5.875 5.405-9.403 11.317-11.898 5.544-2.122 10.487-2.393 16.371-2.227Z" fill="#143169"/><path d="m1623.125 1159.75 2.794.014c19.097.252 19.097.252 22.081 3.236-.09 2.19-.247 4.378-.438 6.563l-.308 3.628L1647 1176l-2.276-.124c-3.428-.179-6.857-.34-10.286-.501l-3.58-.195c-8.633-.409-8.633-.409-16.858 1.82-1.455 2.91-1.45 4.78-1 8 4.782 3.945 10.028 5.48 15.875 7.313 7.89 2.611 14.836 5.119 19.258 12.605 2.919 7.008 2.136 15.005-.133 22.082-3.342 6.325-8.477 11.204-15.367 13.496-12.2 2.335-24.663.02-36.633-2.496l1-14 4.313.5c5.517.475 11.027.744 16.562.875l2.486.115c4.353.06 6.102-.085 9.69-2.79 2.25-2.63 2.25-2.63 2.262-6.263-1.657-4.339-3.044-4.63-7.051-6.497-2.81-1.168-5.651-2.115-8.555-3.018-7.842-2.456-14.513-5.2-19.707-11.922-3.289-6.364-3.145-14.648-1.348-21.48 2.192-4.863 5.754-8.804 10.348-11.52 5.764-2.137 11.065-2.312 17.125-2.25Z" fill="#133068"/><path d="M1329 1023h17v61c-16.57.12-16.57.12-23.684.146-4.836.018-9.672.04-14.509.08-3.903.033-7.806.05-11.71.059-1.482.005-2.964.016-4.446.032-10.574.112-21.198.19-29.245-7.61-5.61-6.81-5.055-15.302-4.406-23.707 2.004-15.004 2.004-15.004 4-17 1.414-.1 2.833-.13 4.25-.125l2.328-.008c2.554.14 4.929.576 7.422 1.133l-.219 2.203A447.617 447.617 0 0 0 1275 1049l-.242 3.293c-.308 6.277-.308 6.277 2.304 11.832 6.284 4.01 12.558 4.194 19.81 4.29l2.48.053c3.028.062 6.057.109 9.085.157L1329 1069v-46ZM695 1023h17v61c-16.57.12-16.57.12-23.684.146-4.836.018-9.672.04-14.509.08-3.903.033-7.806.05-11.71.059-1.482.005-2.964.016-4.446.032-10.512.111-21.21.195-29.245-7.536-5.153-6.528-5.106-14.842-4.406-22.781 1.964-13.929 1.964-13.929 4-18 1.396-.027 2.792-.047 4.188-.063l2.355-.035c2.578.103 4.944.531 7.457 1.098l-.219 2.457A638.572 638.572 0 0 0 641 1050l-.242 3.137c-.214 4.599-.319 7.03 2.304 10.926 6.237 4.113 12.555 4.256 19.81 4.351l2.48.054c3.028.062 6.057.109 9.086.157L695 1069v-46Z" fill="#0E2C65"/><path d="m1557.813 1159.75 2.83-.023c16.128.044 16.128.044 19.357 3.273.073 2.186.084 4.375.063 6.563l-.028 3.628L1580 1176l-2.307-.048c-3.46-.062-6.92-.101-10.38-.14l-3.631-.076-3.506-.029-3.222-.048c-3.39.391-5.217 1.34-7.954 3.341-4.645 6.138-4.194 13.384-4.188 20.75v2.693c.064 7.213.905 13.707 3.188 20.557 4.158 1.83 7.766 2.24 12.273 2.195l3.497-.02 3.605-.05 3.676-.027c2.983-.024 5.966-.06 8.949-.098v14c-12.877 2.676-30.197 5.346-42-2-7.315-6.123-10.164-13.696-11-23-1.648-37.364-1.648-37.364 7-47 7.237-7.076 14.192-7.329 23.813-7.25Z" fill="#123068"/><path d="m1261.813 1159.75 2.83-.023c16.128.044 16.128.044 19.357 3.273.073 2.186.084 4.375.063 6.563l-.028 3.628L1284 1176l-2.307-.048c-3.46-.062-6.92-.101-10.38-.14l-3.631-.076-3.506-.029-3.222-.048c-3.399.392-5.224 1.31-7.954 3.341-6.445 10.127-5.13 26.325-2.7 37.785.97 3.069 2.327 5.058 4.7 7.215 3.238 1.08 5.578 1.114 8.98 1.098l3.526-.01 3.681-.025 3.717-.014c3.032-.012 6.064-.03 9.096-.049v14c-12.891 2.679-30.18 5.336-42-2-7.347-6.027-9.729-13.471-10.8-22.653-1.273-14.894-2.669-34.047 6.487-46.8 6.602-7.78 14.602-7.875 24.126-7.797Z" fill="#122F68"/><path d="M1442.93 1026.242c7.787 6.612 11.692 15.783 13.07 25.758.08 2.528.108 5.057.098 7.586l-.008 3.892-.027 4.897L1456 1084h-56v-15h39c-.708-14.985-.708-14.985-7.676-27.61-5.416-4.129-10.376-4.566-17.074-4.953l-2.113-.13c-1.712-.106-3.425-.207-5.137-.307-1.05-3.15-1.101-5.388-1.063-8.688l.028-3.011.035-2.301c13.344-2.278 25.36-4.103 36.93 4.242Z" fill="#0E2C65"/><path d="M536 1161h58v15h-20v64h-17v-64h-21v-15Z" fill="#15326A"/><path d="M249 1161h58v15h-21v64h-17v-64h-20v-15Z" fill="#16336B"/><path d="M1303 1161h17v64h28v15h-45v-79ZM1101 1161h17v64h28v15h-45v-79Z" fill="#15326A"/><path d="M439 999h18v85h-18v-85ZM184 999h18v85h-18v-85Z" fill="#1A366D"/><path d="M1366 999h17v85h-17v-85ZM1182 999h17v85h-17v-85ZM732 999h17v85h-17v-85Z" fill="#0D2B65"/><path d="M1490 1161h17v79h-17v-79ZM1364 1161h17v79h-17v-79ZM1162 1161h17v79h-17v-79Z" fill="#17346B"/><path d="m881 824-2 7-3.07-.105c-1.352-.029-2.703-.056-4.055-.082l-2.016-.077c-4.738-.07-7.84.78-11.859 3.264-5.13 5.414-6.391 10.484-6.375 17.813l.003 2.153c.147 6.535 1.547 10.51 5.634 15.608 4.568 3.747 9.97 3.693 15.613 3.551l2.086-.027c1.68-.024 3.36-.06 5.039-.098l1 7c-9.626 2.852-18.663 3.134-28-1-7.121-4.198-10.698-11.194-12.813-19l-.187-3-.152-2.2c-.36-9.166 1.407-17.881 7.347-25.077 9.627-9.19 21.697-8.862 33.805-5.723Z" fill="#1F3B70"/><path d="M971 842c2.886 4.6 3.412 8.496 3.293 13.805l-.013 2.194a728.95 728.95 0 0 1-.092 6.876c-.016 1.562-.03 3.125-.042 4.688-.032 3.812-.084 7.625-.146 11.437h-9l-.06-2.507a2856.82 2856.82 0 0 0-.315-11.243c-.03-1.302-.062-2.604-.094-3.945l-.117-3.79-.095-3.49c-.306-2.899-.72-4.616-2.319-7.025-2.84-1.42-4.855-1.315-8-1-2.303 1.867-3.678 3.356-5 6-.154 2.03-.25 4.066-.316 6.102l-.127 3.671-.12 3.852-.13 3.875c-.107 3.167-.209 6.333-.307 9.5h-9v-41h7l2 3 2.25-1.438c6.659-3.783 14.373-4.01 20.75.438Z" fill="#1B376E"/><path d="m1071 841-1 6-2.484-.254-3.266-.308-3.234-.317c-2.657-.107-4.516.06-7.016.879v7l2.195.516c6.088 1.526 11.261 2.94 15.805 7.484.589 5.485 1.078 10.35-2 15.063-7.017 4.531-13.833 6.263-22.125 4.48-1.641-.46-3.261-.994-4.875-1.543l1-6 3.14.105c1.37.029 2.74.056 4.11.082l2.066.077c3.276.047 5.337-.053 8.168-1.776L1063 871c.052-2.423.052-2.423-1-5-2.396-1.272-4.456-2.158-7-3-7.267-2.405-7.267-2.405-10-4.625-1.603-3.808-1.745-7.322-1-11.375 1.762-3.562 4.187-5.593 7.75-7.375 6.845-1.316 12.676-.863 19.25 1.375Z" fill="#264175"/><path d="m1034.125 840 1.875 1v5c-2.85.95-4.86.973-7.938.875-3.863-.022-6.079.483-9.062 3.125-2.666 4.78-3.583 8.56-3 14 1.207 3.811 2.008 6.244 5.219 8.691 3.275 1.542 5.494 1.615 9.093 1.496l3.239-.082L1036 874l1 6c-6.432 2.639-12.642 3.007-19.25.813-5.092-2.187-8.321-5.364-10.563-10.438-2.335-7.075-2.165-14.825.84-21.66 5.389-9.5 16.223-11.875 26.098-8.715Z" fill="#213D72"/><path d="M891 822h9l1 51 7 1c1 1 1 1 1.063 4.063L909 881c-12.048.57-12.048.57-16-3-1.956-3.15-2.245-5.549-2.227-9.228v-3.153l.032-3.385.008-3.48c.011-3.668.037-7.336.062-11.004.01-2.487.02-4.974.027-7.46.022-6.097.056-12.194.098-18.29Z" fill="#1D396F"/><path d="M912 840h15v41h-9v-35h-6v-6Z" fill="#264075"/><path d="M982 840h14v41h-8v-35h-6v-6Z" fill="#0D2B65"/><path d="M75 1122h14v16H75v-16ZM1558 1093h14v16h-14v-16Z" fill="#254074"/><path d="M1305 1008h14v16h-14v-16Z" fill="#2A4477"/><path d="M671 1008h14v16h-14v-16ZM1077 997h14v16h-14v-16Z" fill="#254074"/><path d="M57 1122h13v16H57v-16ZM1540 1093h13v16h-13v-16ZM1287 1008h13v16h-13v-16Z" fill="#15326A"/><path d="M653 1008h13v16h-13v-16Z" fill="#19366D"/><path d="M1096 997h13v16h-13v-16Z" fill="#19356D"/><path d="M986 821c1.48-.027 2.958-.046 4.438-.063l2.496-.035C995 821 995 821 996 822c.141 2.67.042 5.324 0 8-3.013 1.507-5.683 1.178-9 1-2-2-2-2-2.188-5 .188-3 .188-3 1.188-5Z" fill="#3D5583"/><path d="M916 821c1.48-.027 2.958-.046 4.438-.063l2.496-.035C925 821 925 821 926 822c.141 2.67.042 5.324 0 8-2.982 1.491-5.716 1.12-9 1-1-1-1-1-1.098-3.066l.035-2.496.028-2.504L916 821Z" fill="#314A7C"/><path d="m637 129 2 1-24 24-2-1c7.608-8.485 15.464-16.447 24-24Z" fill="#A1C9EF"/><path d="m343 193 2 1-15 15-2-1c1.746-1.941 3.496-3.878 5.25-5.813l1.488-1.658c2.58-2.837 5.068-5.362 8.262-7.529Z" fill="#9FC7EE"/><path d="m1607 1026 2 1-9 9c0-3.956 1.405-5.109 4-8l3-2Z" fill="#4E648E"/><path d="m146 13 2 1-8 8-2-1c2.416-3.192 4.68-5.747 8-8Z" fill="#A4CAEF"/><path d="m525 1023 2 1-8 8c0-3 0-3 2.438-5.625L524 1024l1-1Z" fill="#62759B"/><path d="m852 826 2 1-8 8c0-3 0-3 2.438-5.625L851 827l1-1Z" fill="#536891"/><path d="m1015 841 2 1-7 7c0-3 0-3 2.5-5.688L1015 841Z" fill="#5B7097"/></svg>